<svg xmlns="http://www.w3.org/2000/svg" version="1.0" preserveAspectRatio="xMidYMid meet">
    <g fill="#1e80ff" stroke="none" transform="translate(0.000000,305.000000) scale(0.100000,-0.100000)">
        <path d="M3050 3020 l-785 -5 -45 -24 c-58 -30 -117 -87 -137 -131 -28 -64 -32 -75 -47 -135 -8 -33 -25 -94 -37 -135 -11 -41 -23 -86 -26 -100 -2 -14 -8 -34 -13 -45 -4 -11 -13 -42 -20 -70 -7 -27 -16 -61 -20 -75 -5 -14 -11 -37 -14 -51 l-6 -27 -237 -5 c-241 -5 -263 -8 -339 -49 -64 -35 -142 -146 -127 -184 3 -8 1 -25 -5 -37 -9 -20 -47 -150 -102 -352 -11 -38 -28 -99 -38 -134 l-18 -64 -221 2 c-247 3 -300 -6 -379 -62 -60 -42 -126 -149 -110 -176 4 -6 2 -21 -5 -33 -7 -12 -16 -36 -20 -53 -9 -35 -26 -97 -40 -142 -5 -18 -13 -48 -18 -65 -10 -38 -48 -168 -61 -213 -5 -16 -20 -73 -34 -125 -14 -52 -41 -149 -61 -215 -42 -140 -55 -185 -58 -203 -2 -10 158 -12 780 -12 833 0 810 -1 894 49 37 22 100 106 113 151 25 86 31 105 74 265 17 61 40 144 52 185 12 41 26 94 31 117 l10 41 247 4 c193 2 252 6 272 18 14 8 28 13 31 13 4 -1 17 9 29 22 13 14 29 25 37 25 7 0 13 6 13 13 0 8 9 22 20 32 22 19 43 61 55 105 118 449 152 560 173 578 12 9 79 12 254 12 238 0 239 0 286 26 62 34 116 87 135 132 15 38 19 49 81 277 20 72 45 162 56 200 12 39 25 86 30 105 6 19 23 82 40 140 16 58 36 132 45 165 9 33 20 74 25 90 5 17 16 57 24 89 9 33 13 62 9 65 -4 3 -361 4 -793 1z"/>
        <path d="M1154 3006 c-39 -17 -59 -45 -78 -110 -8 -28 -29 -98 -46 -156 -16 -58 -34 -118 -39 -135 -5 -16 -12 -40 -16 -52 l-6 -23 305 0 306 0 31 28 c28 25 38 52 90 233 32 112 59 210 59 217 0 18 -563 17 -606 -2z"/>
    </g>
</svg>